<svg width="37" height="40" viewBox="0 0 37 40" fill="none" xmlns="http://www.w3.org/2000/svg">
<path d="M3.27112 12.14L18.5241 3.13016" stroke="white" stroke-width="1.6"/>
<path d="M3.27112 12.14L18.5241 3.13016" stroke="white" stroke-width="1.6"/>
<line y1="-0.8" x2="17.7153" y2="-0.8" transform="matrix(-0.853936 -0.520378 -0.520378 0.853936 32.3871 12.7689)" stroke="white" stroke-width="1.6"/>
<line y1="-0.8" x2="17.7153" y2="-0.8" transform="matrix(-0.853936 -0.520378 -0.520378 0.853936 32.3871 12.7689)" stroke="white" stroke-width="1.6"/>
<line y1="-0.8" x2="17.7153" y2="-0.8" transform="matrix(0.00687352 -0.999976 -0.999976 -0.00687352 1.89505 28.7558)" stroke="white" stroke-width="1.6"/>
<line y1="-0.8" x2="17.7153" y2="-0.8" transform="matrix(0.00687352 -0.999976 -0.999976 -0.00687352 1.89505 28.7558)" stroke="white" stroke-width="1.6"/>
<line x1="32.6931" y1="28.1344" x2="17.4401" y2="37.1442" stroke="white" stroke-width="1.6"/>
<line x1="32.6931" y1="28.1344" x2="17.4401" y2="37.1442" stroke="white" stroke-width="1.6"/>
<line y1="-0.8" x2="17.7153" y2="-0.8" transform="matrix(0.853936 0.520378 0.520378 -0.853936 3.42453 27.2472)" stroke="white" stroke-width="1.6"/>
<line y1="-0.8" x2="17.7153" y2="-0.8" transform="matrix(0.853936 0.520378 0.520378 -0.853936 3.42453 27.2472)" stroke="white" stroke-width="1.6"/>
<line y1="-0.8" x2="17.7153" y2="-0.8" transform="matrix(-0.00687352 0.999976 0.999976 0.00687352 33.9166 11.2603)" stroke="white" stroke-width="1.6"/>
<line y1="-0.8" x2="17.7153" y2="-0.8" transform="matrix(-0.00687352 0.999976 0.999976 0.00687352 33.9166 11.2603)" stroke="white" stroke-width="1.6"/>
<circle cx="3.48752" cy="12.5321" r="2.5" transform="rotate(0.393827 3.48752 12.5321)" fill="white"/>
<circle cx="3.48752" cy="12.5321" r="2.5" transform="rotate(0.393827 3.48752 12.5321)" stroke="white"/>
<circle cx="3.48752" cy="12.5321" r="2.5" transform="rotate(0.393827 3.48752 12.5321)" stroke="white"/>
<circle cx="18.1084" cy="3.12269" r="2.5" transform="rotate(0.393827 18.1084 3.12269)" fill="white"/>
<circle cx="18.1084" cy="3.12269" r="2.5" transform="rotate(0.393827 18.1084 3.12269)" stroke="white"/>
<circle cx="18.1084" cy="3.12269" r="2.5" transform="rotate(0.393827 18.1084 3.12269)" stroke="white"/>
<circle cx="33.8682" cy="12.7409" r="2.5" transform="rotate(0.393827 33.8682 12.7409)" fill="white"/>
<circle cx="33.8682" cy="12.7409" r="2.5" transform="rotate(0.393827 33.8682 12.7409)" stroke="white"/>
<circle cx="33.8682" cy="12.7409" r="2.5" transform="rotate(0.393827 33.8682 12.7409)" stroke="white"/>
<circle cx="33.7638" cy="27.9312" r="2.5" transform="rotate(0.393827 33.7638 27.9312)" fill="white"/>
<circle cx="33.7638" cy="27.9312" r="2.5" transform="rotate(0.393827 33.7638 27.9312)" stroke="white"/>
<circle cx="33.7638" cy="27.9312" r="2.5" transform="rotate(0.393827 33.7638 27.9312)" stroke="white"/>
<circle cx="18.1272" cy="36.3642" r="2.5" transform="rotate(0.393827 18.1272 36.3642)" fill="white"/>
<circle cx="18.1272" cy="36.3642" r="2.5" transform="rotate(0.393827 18.1272 36.3642)" stroke="white"/>
<circle cx="18.1272" cy="36.3642" r="2.5" transform="rotate(0.393827 18.1272 36.3642)" stroke="white"/>
<circle cx="3.08078" cy="27.4983" r="2.5" transform="rotate(0.393827 3.08078 27.4983)" fill="white"/>
<circle cx="3.08078" cy="27.4983" r="2.5" transform="rotate(0.393827 3.08078 27.4983)" stroke="white"/>
<circle cx="3.08078" cy="27.4983" r="2.5" transform="rotate(0.393827 3.08078 27.4983)" stroke="white"/>
</svg>
